<svg width="24" height="24" fill="none" xmlns="http://www.w3.org/2000/svg">
  <path d="M15.214 18.65c-1.086.504-2.29.832-3.56.832-4.78 0-8.654-4.654-8.654-5.837 0-.67 1.245-2.457 3.194-3.878m13.075 5.749c.663-.797 1.039-1.503 1.039-1.871 0-1.183-3.875-5.838-8.654-5.838 2.103 0 3.808 1.691 3.808 3.778m-3.808 3.777c-2.103 0-3.808-1.691-3.808-3.777M21 7.807c-2.636-2.181-5.713-3.433-9-3.433-1.185 0-2.342.162-3.461.473M3 7.807c.245-.202.493-.396.744-.582M3 3l16.714 16.875" stroke="currentColor" stroke-linecap="round"/>
</svg>
