<svg width="32" height="30" viewBox="0 0 32 30" fill="none" xmlns="http://www.w3.org/2000/svg">
    <path d="M13.2626 5.55391C13.5847 5.5203 13.917 5.55445 14.2301 5.63264C15.1572 5.86433 15.7858 6.43353 16.2633 7.22946C16.643 7.18916 17.0269 7.21266 17.3986 7.29895C18.1922 7.49566 18.8766 7.98992 19.3059 8.67649C19.5179 9.01479 19.6586 9.39169 19.7196 9.78471C19.7807 10.1777 19.7608 10.5788 19.6612 10.9641C19.3958 11.9668 18.7592 12.4889 17.8922 12.989C17.9162 13.6046 17.9071 14.2232 17.9086 14.8393C17.9093 15.2286 17.9348 15.6347 17.8966 16.0209C17.8802 16.1848 17.8481 16.319 17.763 16.4607C17.6385 16.5497 17.5111 16.5768 17.3597 16.595C16.9629 16.6427 16.532 16.6104 16.1319 16.6095L13.7729 16.6012C12.9339 16.6631 12.0453 16.6045 11.2011 16.6052C10.6392 16.6056 10.0065 16.6714 9.45164 16.6089C9.25366 16.5866 9.16918 16.4563 9.06086 16.3107C8.99086 15.2056 9.0503 14.0638 9.05078 12.9548C8.58862 12.7187 8.19551 12.4289 7.87359 12.0215C7.6334 11.7175 7.45676 11.3697 7.35391 10.998C7.25105 10.6263 7.22403 10.2382 7.27439 9.8562C7.3949 9.04326 7.83537 8.30977 8.5005 7.81444C9.15834 7.32843 9.93706 7.13035 10.7477 7.24162C10.8606 7.04591 10.9732 6.84941 11.1133 6.67099C11.6535 5.98299 12.4061 5.66159 13.2626 5.55391ZM13.3077 6.91111C12.7814 7.01438 12.3279 7.20253 12.0102 7.65801C11.8325 7.91298 11.6701 8.64564 11.4485 8.75752C11.1551 8.7921 10.848 8.65726 10.5638 8.59542C9.993 8.47124 9.34808 8.69769 8.99439 9.15622C8.70349 9.53333 8.56652 10.0533 8.64442 10.5214C8.71492 10.9448 8.9739 11.2999 9.32828 11.5426C9.71499 11.8074 10.146 11.8599 10.4132 12.2756C10.4624 13.2387 10.4267 14.2184 10.4282 15.1835C11.5521 15.1748 12.6762 15.1724 13.8002 15.1764L16.5458 15.1708C16.5454 14.6816 16.4399 12.2487 16.6684 12.0098C16.7758 11.8978 17.0215 11.8295 17.1668 11.7731C17.8208 11.5188 18.2995 11.078 18.3592 10.3525C18.3989 9.87342 18.2423 9.44272 17.9202 9.08556C17.6268 8.76035 17.2439 8.58785 16.8031 8.56195C16.4162 8.53917 15.6194 8.90445 15.3763 8.63251C15.258 8.50008 15.2107 8.27287 15.1502 8.10647C14.9027 7.42173 14.3851 7.02432 13.6571 6.92998C13.5403 6.91488 13.4253 6.90867 13.3077 6.91111Z" fill="black"/>
    <path d="M26.231 1.31166C26.4745 1.29412 26.7667 1.29728 26.9589 1.47251C27.138 1.63565 27.1464 1.89743 27.0867 2.11538C26.9422 2.64344 26.4788 3.27576 26.2 3.75604C25.7538 4.52432 25.3374 5.3138 24.9042 6.09032C24.6363 6.57121 24.312 7.06307 24.0976 7.56554C24.0295 7.72535 23.9778 7.89311 23.9855 8.06834C23.992 8.22054 24.0459 8.33508 24.1631 8.43498C24.3291 8.57627 24.5482 8.68657 24.7735 8.65695C24.9235 8.63725 25.0436 8.55869 25.1364 8.44333C25.4542 8.04854 25.6424 7.49868 25.8746 7.05202L27.4751 3.96305C27.6643 3.59372 27.8311 3.1406 28.0968 2.82128C28.2373 2.65244 28.3679 2.57223 28.5922 2.55336C28.7694 2.53844 28.942 2.58421 29.0788 2.69911C29.2408 2.83545 29.3165 3.05498 29.2845 3.26134C29.223 3.65811 28.8695 4.14 28.681 4.50165L27.2279 7.35053C26.9688 7.86435 26.6648 8.38964 26.4559 8.9249C26.4075 9.04937 26.3591 9.18877 26.3773 9.32389C26.3984 9.48226 26.516 9.62137 26.6441 9.71111C26.7875 9.81152 26.9826 9.87813 27.1588 9.83939C27.3615 9.7948 27.5035 9.64848 27.617 9.48567C27.8755 9.11577 28.0465 8.62993 28.2369 8.22054L29.4774 5.59154C29.7111 5.09244 29.924 4.50631 30.2356 4.05301C30.3477 3.88991 30.4682 3.75973 30.6745 3.7282C30.8835 3.69631 31.095 3.78391 31.2526 3.91469C31.384 4.02353 31.4819 4.15126 31.4877 4.32538C31.503 4.77236 30.6826 6.32406 30.4594 6.82288L29.5804 8.78737C29.1487 9.75613 28.7803 10.7273 28.0527 11.5288C27.336 12.3182 26.5207 12.653 25.5368 13.005C25.3293 13.0793 25.0112 13.1525 24.835 13.2782C24.4871 13.5269 24.2447 13.9868 24.0405 14.3494C23.8839 14.6282 23.6837 14.931 23.5855 15.2356C23.441 15.6844 23.5367 17.0569 23.5367 17.5986L23.5352 24.5947L23.5389 26.7336C23.5396 27.1526 23.5651 27.5906 23.5185 28.0067C23.5014 28.1591 23.441 28.3292 23.3278 28.4386C22.9871 28.7693 21.7317 28.6524 21.2497 28.6498L17.9644 28.6455C18.1536 28.1433 18.3877 27.6498 18.6345 27.1723C19.0607 27.1282 19.4989 27.1472 19.9277 27.1469L22.0469 27.1479L22.0472 18.0053C21.7728 18.6554 21.4234 19.2912 21.1074 19.9234C20.5454 21.0429 19.9895 22.1654 19.4396 23.2908C18.7759 24.6597 18.1016 26.0237 17.4169 27.3825C17.1305 27.9504 16.876 28.549 16.5506 29.0957C16.4185 29.3174 16.2591 29.5176 16.0381 29.66C15.738 29.8515 15.3738 29.9198 15.0233 29.8504C14.8529 29.8153 14.6917 29.7458 14.5498 29.6465C14.4079 29.5471 14.2883 29.4199 14.1985 29.2729C14.0085 28.9673 13.9601 28.6247 14.0635 28.2811C14.2324 27.7197 14.588 27.1781 14.8686 26.6637L16.2045 24.2191C17.8224 21.257 19.4538 18.2962 21.019 15.3069C21.3881 14.6023 22.2234 13.2669 22.4243 12.6032C22.6435 11.8808 22.1834 11.0158 22.0487 10.3052C21.9275 9.66617 21.9424 9.05084 22.1069 8.42049C22.176 8.15105 22.2737 7.88955 22.3985 7.64033C22.6122 7.21953 22.8699 6.81667 23.1079 6.40886L24.3418 4.27875L25.3377 2.55171C25.5343 2.2113 25.721 1.84452 25.9591 1.53101C26.0333 1.43316 26.1254 1.37322 26.231 1.31166Z" fill="black"/>
    <path d="M3.83251 0.0309689C4.97486 -0.0286841 6.14255 0.0223961 7.28795 0.0234364L13.8525 0.0258392L19.8085 0.0228978C20.7745 0.0227902 21.7784 -0.0323069 22.7411 0.0288168C22.9381 0.0412998 23.1619 0.0961456 23.3108 0.231916C23.4415 0.351115 23.4975 0.560564 23.5226 0.72747C23.5736 1.06602 23.5434 1.4371 23.5427 1.78028L23.5343 3.72669C23.0575 4.49332 22.5355 5.23821 22.0346 5.9901C22.0787 5.48565 22.0481 4.96107 22.0481 4.45397L22.0477 1.60146C16.3367 1.60641 10.6185 1.65832 4.90796 1.59802C4.85027 3.9342 4.90312 6.2852 4.90305 8.62272L4.90618 21.5441L12.6036 21.5409L14.987 21.5366C15.4282 21.5359 15.8978 21.505 16.3349 21.5602C16.1726 22.063 15.8639 22.5681 15.624 23.0416L7.68962 23.0247L5.30082 23.0236C4.7564 23.0247 4.18926 22.9989 3.65008 23.0778C3.1859 23.1432 2.7486 23.3321 2.38521 23.6241C1.94096 23.9789 1.61752 24.4922 1.57119 25.0618C1.53038 25.5633 1.7293 26.0475 2.05529 26.426C2.3613 26.7811 2.83158 27.0498 3.29581 27.1373C3.97418 27.2653 4.98236 27.1746 5.69662 27.1767L10.5512 27.181C11.4538 27.1818 12.3732 27.1437 13.273 27.2094C13.1132 27.6764 12.9673 28.1818 12.8763 28.6661C12.0621 28.594 11.1952 28.6528 10.3743 28.6528L5.51277 28.6517C4.66674 28.6539 3.70381 28.7507 2.87828 28.5739C2.29855 28.4498 1.75438 28.1485 1.30099 27.7761C0.569882 27.1764 0.109797 26.2506 0.0351064 25.3204C-0.00664331 24.8003 0.0235683 24.2608 0.0258978 23.7389L0.0270264 21.2059L0.026591 12.4463L0.0248803 6.37226C0.0242979 5.591 -0.0485751 4.21715 0.0578559 3.47972C0.157499 2.74839 0.471366 2.06156 0.961028 1.50332C1.68223 0.656743 2.71512 0.127134 3.83251 0.0309689ZM3.38029 1.66502C2.57609 1.99119 1.98588 2.39973 1.6434 3.21557C1.52521 3.49708 1.49369 3.84406 1.48343 4.14724C1.43312 5.63372 1.47957 7.13832 1.48059 8.62706L1.48179 17.2205L1.48241 21.0303C1.48277 21.4619 1.40178 22.0505 1.49744 22.4619L1.5318 22.4737L1.58505 22.4393C2.19117 21.9913 2.70505 21.7463 3.44974 21.5908C3.39154 19.467 3.4425 17.3273 3.44479 15.2023C3.44738 12.814 3.40555 10.4206 3.43274 8.03286C3.44841 6.47044 3.45172 4.90793 3.44268 3.34546C3.44246 2.96939 3.50456 1.98894 3.43147 1.68009L3.38029 1.66502Z" fill="black"/>
</svg>