<svg width="32" height="30" viewBox="0 0 32 30" fill="none" xmlns="http://www.w3.org/2000/svg">
<path d="M13.2628 5.55342C13.585 5.51981 13.9173 5.55396 14.2303 5.63216C15.1574 5.86384 15.786 6.43304 16.2636 7.22898C16.6433 7.18868 17.0271 7.21217 17.3989 7.29846C18.1925 7.49517 18.8768 7.98944 19.3062 8.676C19.5181 9.0143 19.6588 9.3912 19.7199 9.78422C19.7809 10.1772 19.761 10.5784 19.6614 10.9637C19.3961 11.9663 18.7595 12.4884 17.8924 12.9886C17.9165 13.6041 17.9074 14.2228 17.9088 14.8388C17.9095 15.2281 17.935 15.6342 17.8968 16.0204C17.8804 16.1843 17.8484 16.3185 17.7632 16.4602C17.6387 16.5492 17.5113 16.5763 17.3599 16.5945C16.9632 16.6422 16.5322 16.61 16.1322 16.609L13.7731 16.6007C12.9341 16.6626 12.0455 16.604 11.2013 16.6047C10.6394 16.6051 10.0068 16.6709 9.45188 16.6084C9.25391 16.5861 9.16943 16.4558 9.0611 16.3102C8.99111 15.2051 9.05055 14.0633 9.05102 12.9543C8.58886 12.7182 8.19575 12.4284 7.87384 12.021C7.63364 11.717 7.457 11.3692 7.35415 10.9975C7.2513 10.6258 7.22427 10.2377 7.27464 9.85572C7.39515 9.04277 7.83562 8.30928 8.50074 7.81395C9.15858 7.32794 9.9373 7.12986 10.748 7.24114C10.8609 7.04542 10.9735 6.84893 11.1136 6.67051C11.6538 5.98251 12.4064 5.6611 13.2628 5.55342ZM13.308 6.91062C12.7816 7.01389 12.3281 7.20204 12.0104 7.65752C11.8327 7.91249 11.6703 8.64515 11.4487 8.75703C11.1553 8.79161 10.8483 8.65677 10.564 8.59493C9.99325 8.47075 9.34833 8.6972 8.99464 9.15573C8.70374 9.53284 8.56677 10.0528 8.64466 10.5209C8.71517 10.9443 8.97415 11.2994 9.32853 11.5421C9.71523 11.8069 10.1463 11.8595 10.4134 12.2751C10.4626 13.2382 10.4269 14.218 10.4284 15.183C11.5524 15.1743 12.6764 15.1719 13.8004 15.1759L16.546 15.1703C16.5457 14.6811 16.4401 12.2482 16.6687 12.0094C16.7761 11.8973 17.0218 11.829 17.167 11.7726C17.8211 11.5183 18.2997 11.0775 18.3594 10.352C18.3991 9.87293 18.2426 9.44223 17.9205 9.08507C17.6271 8.75987 17.2442 8.58736 16.8034 8.56146C16.4164 8.53869 15.6197 8.90396 15.3765 8.63202C15.2582 8.49959 15.2109 8.27238 15.1505 8.10598C14.903 7.42124 14.3854 7.02383 13.6574 6.92949C13.5406 6.91439 13.4255 6.90818 13.308 6.91062Z" fill="white"/>
<path d="M26.2314 1.31093C26.4749 1.29339 26.7672 1.29655 26.9594 1.47178C27.1385 1.63492 27.1469 1.8967 27.0872 2.11465C26.9427 2.6427 26.4793 3.27503 26.2005 3.7553C25.7542 4.52358 25.3378 5.31306 24.9047 6.08959C24.6368 6.57047 24.3125 7.06233 24.0981 7.56481C24.03 7.72461 23.9783 7.89238 23.986 8.06761C23.9925 8.21981 24.0464 8.33435 24.1636 8.43425C24.3296 8.57554 24.5487 8.68584 24.774 8.65621C24.924 8.63652 25.0441 8.55796 25.1369 8.4426C25.4547 8.04781 25.6429 7.49795 25.8751 7.05129L27.4756 3.96231C27.6648 3.59299 27.8315 3.13987 28.0973 2.82055C28.2378 2.65171 28.3684 2.5715 28.5926 2.55263C28.7699 2.53771 28.9424 2.58348 29.0793 2.69837C29.2413 2.83472 29.317 3.05425 29.285 3.26061C29.2234 3.65738 28.87 4.13927 28.6815 4.50091L27.2284 7.3498C26.9692 7.86361 26.6653 8.3889 26.4564 8.92417C26.408 9.04864 26.3596 9.18803 26.3778 9.32316C26.3989 9.48153 26.5164 9.62063 26.6446 9.71038C26.788 9.81078 26.9831 9.87739 27.1593 9.83865C27.362 9.79407 27.5039 9.64775 27.6175 9.48493C27.8759 9.11503 28.047 8.6292 28.2374 8.21981L29.4779 5.59081C29.7116 5.0917 29.9245 4.50558 30.2361 4.05228C30.3482 3.88917 30.4687 3.759 30.675 3.72747C30.884 3.69558 31.0954 3.78318 31.2531 3.91396C31.3845 4.02279 31.4824 4.15053 31.4882 4.32465C31.5035 4.77163 30.683 6.32333 30.4599 6.82214L29.5809 8.78664C29.1492 9.7554 28.7808 10.7266 28.0532 11.5281C27.3365 12.3174 26.5212 12.6522 25.5373 13.0043C25.3298 13.0786 25.0117 13.1518 24.8355 13.2775C24.4876 13.5262 24.2451 13.986 24.0409 14.3486C23.8844 14.6274 23.6842 14.9303 23.586 15.2349C23.4414 15.6836 23.5372 17.0562 23.5372 17.5978L23.5357 24.5939L23.5394 26.7329C23.5401 27.1519 23.5656 27.5899 23.519 28.006C23.5019 28.1584 23.4414 28.3284 23.3282 28.4378C22.9876 28.7686 21.7322 28.6516 21.2502 28.6491L17.9648 28.6448C18.1541 28.1426 18.3882 27.649 18.635 27.1716C19.0612 27.1275 19.4994 27.1465 19.9282 27.1461L22.0474 27.1472L22.0477 18.0045C21.7733 18.6547 21.4238 19.2904 21.1079 19.9227C20.5459 21.0422 19.99 22.1647 19.4401 23.29C18.7764 24.659 18.1021 26.0229 17.4174 27.3818C17.1309 27.9496 16.8765 28.5483 16.5511 29.095C16.419 29.3167 16.2595 29.5168 16.0386 29.6592C15.7385 29.8508 15.3743 29.9191 15.0238 29.8497C14.8534 29.8145 14.6922 29.7451 14.5503 29.6457C14.4083 29.5464 14.2888 29.4192 14.199 29.2722C14.009 28.9666 13.9606 28.624 14.064 28.2804C14.2328 27.719 14.5885 27.1773 14.8691 26.663L16.205 24.2184C17.8229 21.2563 19.4543 18.2955 21.0195 15.3061C21.3885 14.6016 22.2239 13.2662 22.4248 12.6024C22.6439 11.88 22.1839 11.0151 22.0492 10.3045C21.928 9.66543 21.9429 9.05011 22.1074 8.41975C22.1765 8.15032 22.2742 7.88882 22.399 7.6396C22.6126 7.2188 22.8703 6.81594 23.1084 6.40812L24.3423 4.27801L25.3382 2.55098C25.5348 2.21057 25.7215 1.84379 25.9595 1.53028C26.0338 1.43243 26.1259 1.37249 26.2314 1.31093Z" fill="white"/>
<path d="M3.83251 0.0309689C4.97486 -0.0286841 6.14255 0.0223961 7.28795 0.0234364L13.8525 0.0258392L19.8085 0.0228978C20.7745 0.0227902 21.7784 -0.0323069 22.7411 0.0288168C22.9381 0.0412998 23.1619 0.0961456 23.3108 0.231916C23.4415 0.351115 23.4975 0.560564 23.5226 0.72747C23.5736 1.06602 23.5434 1.4371 23.5427 1.78028L23.5343 3.72669C23.0575 4.49332 22.5355 5.23821 22.0346 5.9901C22.0787 5.48565 22.0481 4.96107 22.0481 4.45397L22.0477 1.60146C16.3367 1.60641 10.6185 1.65832 4.90796 1.59802C4.85027 3.9342 4.90312 6.2852 4.90305 8.62272L4.90618 21.5441L12.6036 21.5409L14.987 21.5366C15.4282 21.5359 15.8978 21.505 16.3349 21.5602C16.1726 22.063 15.8639 22.5681 15.624 23.0416L7.68962 23.0247L5.30082 23.0236C4.7564 23.0247 4.18926 22.9989 3.65008 23.0778C3.1859 23.1432 2.7486 23.3321 2.38521 23.6241C1.94096 23.9789 1.61752 24.4922 1.57119 25.0618C1.53038 25.5633 1.7293 26.0475 2.05529 26.426C2.3613 26.7811 2.83158 27.0498 3.29581 27.1373C3.97418 27.2653 4.98236 27.1746 5.69662 27.1767L10.5512 27.181C11.4538 27.1818 12.3732 27.1437 13.273 27.2094C13.1132 27.6764 12.9673 28.1818 12.8763 28.6661C12.0621 28.594 11.1952 28.6528 10.3743 28.6528L5.51277 28.6517C4.66674 28.6539 3.70381 28.7507 2.87828 28.5739C2.29855 28.4498 1.75438 28.1485 1.30099 27.7761C0.569882 27.1764 0.109797 26.2506 0.0351064 25.3204C-0.00664331 24.8003 0.0235683 24.2608 0.0258978 23.7389L0.0270264 21.2059L0.026591 12.4463L0.0248803 6.37226C0.0242979 5.591 -0.0485751 4.21715 0.0578559 3.47972C0.157499 2.74839 0.471366 2.06156 0.961028 1.50332C1.68223 0.656743 2.71512 0.127134 3.83251 0.0309689ZM3.38029 1.66502C2.57609 1.99119 1.98588 2.39973 1.6434 3.21557C1.52521 3.49708 1.49369 3.84406 1.48343 4.14724C1.43312 5.63372 1.47957 7.13832 1.48059 8.62706L1.48179 17.2205L1.48241 21.0303C1.48277 21.4619 1.40178 22.0505 1.49744 22.4619L1.5318 22.4737L1.58505 22.4393C2.19117 21.9913 2.70505 21.7463 3.44974 21.5908C3.39154 19.467 3.4425 17.3273 3.44479 15.2023C3.44738 12.814 3.40555 10.4206 3.43274 8.03286C3.44841 6.47044 3.45172 4.90793 3.44268 3.34546C3.44246 2.96939 3.50456 1.98894 3.43147 1.68009L3.38029 1.66502Z" fill="white"/>
</svg>
